<svg width="872" height="872" viewBox="0 0 872 872" fill="none" xmlns="http://www.w3.org/2000/svg">
    <rect x="0.5" y="0.5" width="871" height="871" fill="#181818" stroke="#292929"/>
    <path fill-rule="evenodd" clip-rule="evenodd" d="M517.535 182.016C546.007 181.499 567.841 193.166 583.035 217.016C598.045 244.173 590.211 258.673 559.535 260.516C554.246 259.21 550.079 256.377 547.035 252.016C543.453 243.256 539.12 234.922 534.035 227.016C527.439 217.799 518.605 214.299 507.535 216.516C499.863 220.683 492.53 225.35 485.535 230.516C482.079 231.639 479.245 230.806 477.035 228.016C479.663 203.216 493.163 187.882 517.535 182.016Z" fill="white"/>
    <path fill-rule="evenodd" clip-rule="evenodd" d="M596.535 183.016C610.568 182.282 621.735 187.615 630.035 199.016C639.26 211.685 644.76 225.851 646.535 241.516C646.7 244.433 646.033 247.099 644.535 249.516C642.868 250.183 641.202 250.183 639.535 249.516C623.702 239.016 610.535 225.849 600.035 210.016C597.447 205.842 595.114 201.509 593.035 197.016C591.531 191.526 592.698 186.859 596.535 183.016Z" fill="white"/>
    <path fill-rule="evenodd" clip-rule="evenodd" d="M709.535 296.017C720.785 296.634 731.119 300.134 740.535 306.517C746.246 313.211 745.579 319.211 738.535 324.517C732.831 325.832 727.831 324.499 723.535 320.517C716.55 314.859 711.55 307.859 708.535 299.517C708.683 298.261 709.017 297.094 709.535 296.017Z" fill="white"/>
    <path fill-rule="evenodd" clip-rule="evenodd" d="M592.535 597.017C594.032 602.176 595.699 607.176 597.535 612.017C599.423 619.07 600.756 626.237 601.535 633.517C599.832 650.894 590.499 661.894 573.535 666.517C567.535 667.184 561.535 667.184 555.535 666.517C548.854 664.504 544.021 660.337 541.035 654.017C530.902 623.022 521.902 591.689 514.035 560.017C513.061 555.05 510.394 551.383 506.035 549.017C504.091 549.956 502.424 551.29 501.035 553.017C497.309 561.527 493.976 570.194 491.035 579.017C485.959 590.674 478.792 600.841 469.535 609.517C451.507 621.633 436.007 619.133 423.035 602.017C422.232 599.273 421.232 596.606 420.035 594.017C419.855 587.674 419.855 581.341 420.035 575.017C419.296 573.943 418.296 573.276 417.035 573.017C408.72 577.322 401.553 583.155 395.535 590.517C365.815 611.526 333.482 616.859 298.535 606.517C293.341 604.426 288.674 601.593 284.535 598.017C275.48 588.186 272.813 576.852 276.535 564.017C280.426 552.291 286.26 541.625 294.035 532.017C295.185 529.763 295.519 527.43 295.035 525.017C291.962 523.9 288.795 523.733 285.535 524.517C273.561 529.778 261.061 532.611 248.035 533.017C220.907 532.23 204.24 518.564 198.035 492.017C194.689 475.367 196.522 459.367 203.535 444.017C207.822 436.73 213.489 430.73 220.535 426.017C232.002 420.144 243.835 419.477 256.035 424.017C263.619 424.123 265.952 420.789 263.035 414.017C250.77 406.084 240.104 396.418 231.035 385.017C220.728 366.271 224.562 351.105 242.535 339.517C252.113 333.713 262.446 330.213 273.535 329.017C274.202 328.684 274.868 328.35 275.535 328.017C300.891 326.1 323.224 333.266 342.535 349.517C344.38 350.645 346.38 351.145 348.535 351.017C348.618 344.092 347.951 337.259 346.535 330.517C347.661 317.075 354.994 311.409 368.535 313.517C383.847 317.507 397.847 324.174 410.535 333.517C441.17 357.941 468.336 385.774 492.035 417.017C534.025 471.971 567.525 531.971 592.535 597.017Z" fill="white"/>
    <path fill-rule="evenodd" clip-rule="evenodd" d="M161.534 512.017C164.884 511.852 168.217 512.019 171.534 512.517C174.664 514.645 177.497 517.145 180.034 520.017C186.066 528.746 191.066 538.079 195.034 548.017C197.463 553.887 196.963 559.387 193.534 564.517C182.436 570.067 171.102 575.067 159.534 579.517C137.138 580.786 126.305 570.286 127.034 548.017C130.279 538.036 136.112 529.87 144.534 523.517C150.266 519.661 155.933 515.827 161.534 512.017Z" fill="white"/>
    <path d="M600.535 273.016C642.601 270.806 677.434 285.473 705.035 317.016C724.298 338.541 736.965 363.541 743.035 392.016C747.678 415.809 743.011 437.476 729.035 457.016C719.632 466.969 708.132 473.136 694.535 475.516C668.682 479.013 644.015 475.013 620.535 463.516C606.67 457.087 593.337 449.921 580.535 442.016C579.09 440.453 577.424 439.12 575.535 438.016C560.667 428.13 547.167 416.463 535.035 403.016C528.624 393.624 524.458 383.29 522.535 372.016C522.837 369.457 522.503 367.123 521.535 365.016C521.659 353.542 520.492 342.208 518.035 331.016C513.401 318.056 504.235 310.555 490.535 308.516C485.868 307.849 481.202 307.849 476.535 308.516C473.828 310.38 472.994 312.88 474.035 316.016C476.035 318.683 478.035 321.349 480.035 324.016C481.446 326.166 482.28 328.5 482.535 331.016V333.016C479.481 336.382 475.647 337.715 471.035 337.016C455.387 335.362 443.721 327.695 436.035 314.016C435.54 312.043 435.373 310.043 435.535 308.016C438.414 302.464 442.414 297.798 447.535 294.016C463.015 282.123 480.348 278.623 499.535 283.516C509.093 285.794 518.093 289.461 526.535 294.516C529.535 295.183 532.535 295.183 535.535 294.516C546.429 290.736 557.095 286.402 567.535 281.516C574.045 279.056 580.711 277.222 587.535 276.016C592.018 275.143 596.352 274.143 600.535 273.016ZM657.035 342.016C655.141 338.672 652.308 337.338 648.535 338.016C638.697 348.041 635.197 360.041 638.035 374.016C640.237 385.189 646.737 389.355 657.535 386.516C664.36 381.384 666.86 374.551 665.035 366.016C663.582 360.393 660.082 357.06 654.535 356.016C656.019 351.426 656.852 346.759 657.035 342.016ZM699.535 334.516C696.112 332.612 692.445 331.779 688.535 332.016C686.644 334.352 686.144 337.018 687.035 340.016C690.397 344.546 693.564 349.213 696.535 354.016C694.782 356.521 693.282 359.188 692.035 362.016C690.258 370.277 692.758 376.777 699.535 381.516C708.962 383.225 714.462 379.392 716.035 370.016C715.837 355.785 710.337 343.951 699.535 334.516Z" fill="white"/>
    <path fill-rule="evenodd" clip-rule="evenodd" d="M272.535 622.017C273.244 622.921 274.244 623.254 275.535 623.017C287.242 628.227 295.409 636.894 300.035 649.017C301.301 655.112 300.301 660.779 297.035 666.017C287.486 676.245 276.319 684.078 263.535 689.517C249.071 691.038 238.904 685.205 233.035 672.017C232.158 665.268 232.491 658.601 234.035 652.017C239.836 638.551 249.336 628.717 262.535 622.517C265.852 622.019 269.185 621.852 272.535 622.017Z" fill="white"/>
    <path fill-rule="evenodd" clip-rule="evenodd" d="M668.535 542.017C676.849 541.179 684.516 543.012 691.535 547.517C701.854 554.168 709.687 563.001 715.035 574.017C718.762 592.061 712.596 605.561 696.535 614.517C679.52 619.26 667.687 613.426 661.035 597.017C656.987 585.347 654.987 573.347 655.035 561.017C657.099 552.812 661.599 546.478 668.535 542.017Z" fill="white"/>
</svg>